<svg width="25" height="24" viewBox="0 0 25 24" fill="none" xmlns="http://www.w3.org/2000/svg">
<path d="M20.4335 5.91237C19.0934 4.16593 17.2145 2.91048 15.0882 2.34073L14.5706 4.27258C16.2716 4.72838 17.7748 5.73274 18.8468 7.1299C19.7145 8.26069 20.2606 9.59765 20.4373 11L2.5 11V13L20.4373 13C20.2606 14.4023 19.7145 15.7393 18.8468 16.8701C17.7748 18.2672 16.2716 19.2716 14.5706 19.7274L15.0882 21.6592C17.2145 21.0895 19.0934 19.834 20.4335 18.0876C21.7736 16.3412 22.5 14.2013 22.5 12C22.5 9.79864 21.7736 7.65881 20.4335 5.91237Z" fill="white"/>
</svg>
