<svg width="25" height="25" viewBox="0 0 25 25" fill="none" xmlns="http://www.w3.org/2000/svg">
<path d="M24 12.5C24 18.8513 18.8513 24 12.5 24C9.06524 24 1 24 1 24C1 24 1 15.4165 1 12.5C1 6.14872 6.14872 1 12.5 1C18.8513 1 24 6.14872 24 12.5Z" fill="white"/>
<path d="M1 24H0.5C0.5 24.2761 0.723858 24.5 1 24.5V24ZM1 24L1.00009 24.5H1.00037H1.00083H1.00147H1.0023H1.0033H1.00449H1.00586H1.00741H1.00914H1.01104H1.01313H1.01539H1.01783H1.02045H1.02324H1.02621H1.02935H1.03267H1.03616H1.03983H1.04367H1.04768H1.05186H1.05621H1.06073H1.06542H1.07029H1.07532H1.08052H1.08588H1.09141H1.09711H1.10298H1.10901H1.11521H1.12157H1.12809H1.13478H1.14163H1.14864H1.15581H1.16314H1.17063H1.17829H1.1861H1.19407H1.2022H1.21048H1.21892H1.22752H1.23628H1.24519H1.25425H1.26347H1.27284H1.28236H1.29204H1.30187H1.31185H1.32198H1.33226H1.34268H1.35326H1.36399H1.37486H1.38588H1.39705H1.40836H1.41982H1.43143H1.44317H1.45507H1.4671H1.47928H1.4916H1.50406H1.51666H1.5294H1.54229H1.55531H1.56847H1.58176H1.5952H1.60877H1.62248H1.63633H1.65031H1.66442H1.67867H1.69305H1.70757H1.72221H1.73699H1.7519H1.76694H1.78211H1.79741H1.81284H1.8284H1.84409H1.8599H1.87584H1.89191H1.9081H1.92442H1.94086H1.95742H1.97411H1.99092H2.00786H2.02491H2.04209H2.05938H2.0768H2.09433H2.11199H2.12976H2.14765H2.16566H2.18378H2.20202H2.22038H2.23885H2.25743H2.27613H2.29494H2.31386H2.3329H2.35204H2.3713H2.39067H2.41015H2.42973H2.44943H2.46923H2.48914H2.50916H2.52928H2.54951H2.56984H2.59028H2.61083H2.63147H2.65222H2.67307H2.69403H2.71508H2.73624H2.75749H2.77885H2.8003H2.82185H2.8435H2.86525H2.88709H2.90903H2.93107H2.9532H2.97542H2.99774H3.02015H3.04265H3.06525H3.08794H3.11072H3.13358H3.15654H3.17959H3.20273H3.22595H3.24926H3.27266H3.29615H3.31972H3.34338H3.36712H3.39094H3.41485H3.43885H3.46292H3.48708H3.51132H3.53563H3.56003H3.58451H3.60907H3.6337H3.65842H3.68321H3.70808H3.73302H3.75804H3.78314H3.80831H3.83355H3.85887H3.88425H3.90972H3.93525H3.96085H3.98653H4.01227H4.03809H4.06397H4.08992H4.11594H4.14203H4.16818H4.1944H4.22068H4.24703H4.27344H4.29992H4.32646H4.35306H4.37973H4.40645H4.43324H4.46009H4.48699H4.51396H4.54099H4.56807H4.59521H4.62241H4.64966H4.67697H4.70433H4.73175H4.75923H4.78675H4.81433H4.84196H4.86965H4.89738H4.92517H4.953H4.98089H5.00882H5.03681H5.06484H5.09291H5.12104H5.14921H5.17742H5.20568H5.23399H5.26234H5.29073H5.31917H5.34764H5.37616H5.40472H5.43332H5.46196H5.49064H5.51936H5.54812H5.57691H5.60574H5.63461H5.66351H5.69245H5.72143H5.75043H5.77948H5.80855H5.83766H5.8668H5.89597H5.92517H5.9544H5.98366H6.01295H6.04227H6.07162H6.10099H6.13039H6.15982H6.18927H6.21875H6.24825H6.27778H6.30733H6.3369H6.36649H6.39611H6.42575H6.45541H6.48509H6.51478H6.5445H6.57423H6.60399H6.63376H6.66354H6.69335H6.72316H6.753H6.78284H6.81271H6.84258H6.87247H6.90237H6.93228H6.9622H6.99213H7.02207H7.05202H7.08198H7.11195H7.14192H7.1719H7.20189H7.23189H7.26189H7.29189H7.3219H7.35191H7.38193H7.41194H7.44196H7.47198H7.502H7.53202H7.56205H7.59206H7.62208H7.6521H7.68211H7.71212H7.74213H7.77213H7.80213H7.83212H7.8621H7.89208H7.92206H7.95202H7.98197H8.01192H8.04186H8.07178H8.1017H8.13161H8.1615H8.19138H8.22125H8.2511H8.28094H8.31077H8.34058H8.37037H8.40015H8.42991H8.45966H8.48938H8.51909H8.54878H8.57845H8.6081H8.63773H8.66733H8.69692H8.72648H8.75602H8.78553H8.81502H8.84449H8.87393H8.90334H8.93273H8.96209H8.99142H9.02073H9.05001H9.07925H9.10847H9.13766H9.16681H9.19593H9.22503H9.25408H9.28311H9.3121H9.34106H9.36998H9.39887H9.42772H9.45653H9.48531H9.51404H9.54274H9.5714H9.60003H9.62861H9.65715H9.68565H9.7141H9.74252H9.77089H9.79922H9.8275H9.85574H9.88394H9.91208H9.94019H9.96824H9.99625H10.0242H10.0521H10.08H10.1078H10.1356H10.1633H10.1909H10.2185H10.2461H10.2736H10.301H10.3284H10.3558H10.383H10.4103H10.4374H10.4646H10.4916H10.5186H10.5455H10.5724H10.5992H10.626H10.6527H10.6793H10.7059H10.7324H10.7589H10.7852H10.8116H10.8378H10.864H10.8901H10.9162H10.9422H10.9681H10.9939H11.0197H11.0454H11.0711H11.0966H11.1221H11.1476H11.1729H11.1982H11.2234H11.2485H11.2736H11.2986H11.3235H11.3483H11.3731H11.3977H11.4223H11.4469H11.4713H11.4957H11.5199H11.5441H11.5683H11.5923H11.6162H11.6401H11.6639H11.6876H11.7112H11.7347H11.7582H11.7815H11.8048H11.828H11.8511H11.8741H11.897H11.9198H11.9426H11.9652H11.9878H12.0102H12.0326H12.0549H12.077H12.0991H12.1211H12.143H12.1648H12.1865H12.2081H12.2296H12.251H12.2723H12.2935H12.3146H12.3357H12.3566H12.3774H12.3981H12.4187H12.4391H12.4595H12.4798H12.5C19.1274 24.5 24.5 19.1274 24.5 12.5C24.5 5.87258 19.1274 0.5 12.5 0.5C5.87258 0.5 0.5 5.87258 0.5 12.5V12.5172V12.5344V12.5518V12.5694V12.5871V12.6048V12.6228V12.6408V12.659V12.6773V12.6957V12.7142V12.7329V12.7517V12.7706V12.7896V12.8087V12.828V12.8474V12.8669V12.8865V12.9062V12.9261V12.946V12.9661V12.9863V13.0066V13.027V13.0475V13.0682V13.0889V13.1098V13.1307V13.1518V13.173V13.1943V13.2157V13.2372V13.2588V13.2805V13.3023V13.3243V13.3463V13.3684V13.3907V13.413V13.4354V13.4579V13.4806V13.5033V13.5261V13.5491V13.5721V13.5952V13.6184V13.6417V13.6651V13.6886V13.7122V13.7359V13.7596V13.7835V13.8075V13.8315V13.8556V13.8798V13.9042V13.9285V13.953V13.9776V14.0022V14.027V14.0518V14.0767V14.1017V14.1267V14.1519V14.1771V14.2024V14.2278V14.2533V14.2788V14.3044V14.3301V14.3559V14.3818V14.4077V14.4337V14.4598V14.4859V14.5121V14.5384V14.5648V14.5912V14.6177V14.6443V14.6709V14.6976V14.7244V14.7513V14.7782V14.8051V14.8322V14.8593V14.8864V14.9137V14.941V14.9683V14.9957V15.0232V15.0507V15.0783V15.106V15.1337V15.1614V15.1893V15.2171V15.2451V15.2731V15.3011V15.3292V15.3573V15.3855V15.4138V15.4421V15.4704V15.4988V15.5273V15.5558V15.5843V15.6129V15.6415V15.6702V15.699V15.7277V15.7565V15.7854V15.8143V15.8433V15.8722V15.9013V15.9303V15.9594V15.9886V16.0178V16.047V16.0762V16.1055V16.1348V16.1642V16.1936V16.223V16.2525V16.282V16.3115V16.3411V16.3707V16.4003V16.4299V16.4596V16.4893V16.519V16.5488V16.5786V16.6084V16.6382V16.668V16.6979V16.7278V16.7577V16.7877V16.8177V16.8476V16.8776V16.9077V16.9377V16.9678V16.9979V17.0279V17.0581V17.0882V17.1183V17.1485V17.1786V17.2088V17.239V17.2692V17.2994V17.3296V17.3599V17.3901V17.4203V17.4506V17.4809V17.5111V17.5414V17.5717V17.602V17.6322V17.6625V17.6928V17.7231V17.7534V17.7837V17.814V17.8443V17.8746V17.9049V17.9352V17.9654V17.9957V18.026V18.0563V18.0865V18.1168V18.147V18.1773V18.2075V18.2377V18.2679V18.2981V18.3283V18.3585V18.3887V18.4188V18.449V18.4791V18.5092V18.5393V18.5694V18.5994V18.6295V18.6595V18.6895V18.7195V18.7495V18.7794V18.8094V18.8393V18.8691V18.899V18.9288V18.9587V18.9884V19.0182V19.0479V19.0776V19.1073V19.137V19.1666V19.1962V19.2258V19.2553V19.2848V19.3143V19.3437V19.3731V19.4025V19.4318V19.4611V19.4904V19.5196V19.5488V19.5779V19.607V19.6361V19.6651V19.6941V19.7231V19.752V19.7809V19.8097V19.8385V19.8672V19.8959V19.9246V19.9532V19.9817V20.0102V20.0387V20.0671V20.0954V20.1238V20.152V20.1802V20.2084V20.2365V20.2645V20.2925V20.3205V20.3484V20.3762V20.404V20.4317V20.4594V20.487V20.5145V20.542V20.5694V20.5968V20.6241V20.6513V20.6785V20.7056V20.7327V20.7597V20.7866V20.8134V20.8402V20.8669V20.8936V20.9202V20.9467V20.9731V20.9995V21.0258V21.0521V21.0782V21.1043V21.1303V21.1563V21.1821V21.2079V21.2336V21.2593V21.2848V21.3103V21.3357V21.3611V21.3863V21.4115V21.4365V21.4616V21.4865V21.5113V21.5361V21.5607V21.5853V21.6098V21.6342V21.6585V21.6828V21.7069V21.731V21.755V21.7788V21.8026V21.8263V21.8499V21.8734V21.8969V21.9202V21.9434V21.9666V21.9896V22.0126V22.0354V22.0581V22.0808V22.1034V22.1258V22.1482V22.1704V22.1926V22.2146V22.2366V22.2584V22.2801V22.3018V22.3233V22.3447V22.366V22.3872V22.4083V22.4293V22.4502V22.471V22.4916V22.5122V22.5326V22.553V22.5732V22.5933V22.6133V22.6331V22.6529V22.6725V22.692V22.7115V22.7307V22.7499V22.769V22.7879V22.8067V22.8254V22.8439V22.8624V22.8807V22.8989V22.917V22.9349V22.9527V22.9704V22.988V23.0054V23.0227V23.0399V23.057V23.0739V23.0907V23.1073V23.1239V23.1403V23.1565V23.1727V23.1886V23.2045V23.2202V23.2358V23.2513V23.2666V23.2817V23.2968V23.3117V23.3264V23.341V23.3555V23.3698V23.384V23.398V23.4119V23.4257V23.4393V23.4528V23.4661V23.4792V23.4922V23.5051V23.5178V23.5304V23.5428V23.5551V23.5672V23.5792V23.591V23.6026V23.6141V23.6255V23.6367V23.6477V23.6586V23.6693V23.6799V23.6903V23.7005V23.7106V23.7205V23.7303V23.7399V23.7493V23.7586V23.7677V23.7766V23.7854V23.794V23.8025V23.8108V23.8189V23.8268V23.8346V23.8422V23.8496V23.8569V23.864V23.8709V23.8776V23.8842V23.8906V23.8968V23.9029V23.9088V23.9145V23.92V23.9253V23.9305V23.9355V23.9403V23.9449V23.9493V23.9536V23.9577V23.9616V23.9653V23.9688V23.9721V23.9753V23.9783V23.981V23.9836V23.986V23.9883V23.9903V23.9921V23.9938V23.9952V23.9965V23.9976V23.9984V23.9991V23.9996V23.9999L1 24Z" stroke="black" stroke-opacity="0.5" stroke-linecap="round" stroke-linejoin="round"/>
<mask id="path-3-outside-1_179_3067" maskUnits="userSpaceOnUse" x="5.74902" y="8.05029" width="13" height="2" fill="black">
<rect fill="white" x="5.74902" y="8.05029" width="13" height="2"/>
<path d="M6.74902 9.05029H17.099Z"/>
</mask>
<path d="M6.74902 8.05029C6.19674 8.05029 5.74902 8.49801 5.74902 9.05029C5.74902 9.60258 6.19674 10.0503 6.74902 10.0503V8.05029ZM17.099 10.0503C17.6513 10.0503 18.099 9.60258 18.099 9.05029C18.099 8.49801 17.6513 8.05029 17.099 8.05029V10.0503ZM6.74902 10.0503H17.099V8.05029H6.74902V10.0503Z" fill="black" fill-opacity="0.5" mask="url(#path-3-outside-1_179_3067)"/>
<mask id="path-5-outside-2_179_3067" maskUnits="userSpaceOnUse" x="5.74902" y="12.6499" width="13" height="2" fill="black">
<rect fill="white" x="5.74902" y="12.6499" width="13" height="2"/>
<path d="M6.74902 13.6499H17.099Z"/>
</mask>
<path d="M6.74902 12.6499C6.19674 12.6499 5.74902 13.0976 5.74902 13.6499C5.74902 14.2022 6.19674 14.6499 6.74902 14.6499V12.6499ZM17.099 14.6499C17.6513 14.6499 18.099 14.2022 18.099 13.6499C18.099 13.0976 17.6513 12.6499 17.099 12.6499V14.6499ZM6.74902 14.6499H17.099V12.6499H6.74902V14.6499Z" fill="black" fill-opacity="0.5" mask="url(#path-5-outside-2_179_3067)"/>
<mask id="path-7-outside-3_179_3067" maskUnits="userSpaceOnUse" x="5.74902" y="17.25" width="8" height="2" fill="black">
<rect fill="white" x="5.74902" y="17.25" width="8" height="2"/>
<path d="M6.74902 18.25H12.499Z"/>
</mask>
<path d="M6.74902 17.25C6.19674 17.25 5.74902 17.6977 5.74902 18.25C5.74902 18.8023 6.19674 19.25 6.74902 19.25V17.25ZM12.499 19.25C13.0513 19.25 13.499 18.8023 13.499 18.25C13.499 17.6977 13.0513 17.25 12.499 17.25V19.25ZM6.74902 19.25H12.499V17.25H6.74902V19.25Z" fill="black" fill-opacity="0.5" mask="url(#path-7-outside-3_179_3067)"/>
</svg>
