<svg width="25" height="24" viewBox="0 0 25 24" fill="none" xmlns="http://www.w3.org/2000/svg">
<path d="M24.5002 12.2659C24.5002 11.282 24.4185 10.5641 24.2417 9.81958H12.7451V14.2601H19.4934C19.3574 15.3637 18.6227 17.0256 16.99 18.1423L16.9671 18.291L20.6021 21.0428L20.854 21.0674C23.1668 18.98 24.5002 15.9088 24.5002 12.2659Z" fill="#4285F4"/>
<path d="M12.7454 23.9656C16.0515 23.9656 18.827 22.9019 20.8543 21.0673L16.9903 18.1422C15.9563 18.8469 14.5685 19.3388 12.7454 19.3388C9.50737 19.3388 6.75909 17.2515 5.77941 14.3665L5.63581 14.3784L1.85607 17.2369L1.80664 17.3711C3.82023 21.2799 7.95629 23.9656 12.7454 23.9656Z" fill="#34A853"/>
<path d="M5.77886 14.3666C5.52036 13.6221 5.37076 12.8243 5.37076 12.0001C5.37076 11.1757 5.52036 10.378 5.76526 9.63352L5.75841 9.47496L1.93131 6.57056L1.80609 6.62876C0.976196 8.2508 0.5 10.0723 0.5 12.0001C0.5 13.9279 0.976196 15.7493 1.80609 17.3713L5.77886 14.3666Z" fill="#FBBC05"/>
<path d="M12.7454 4.66089C15.0447 4.66089 16.5957 5.63144 17.4801 6.44251L20.9359 3.14527C18.8135 1.21746 16.0515 0.0341797 12.7454 0.0341797C7.95629 0.0341797 3.82023 2.7198 1.80664 6.62857L5.76581 9.63333C6.7591 6.74827 9.50737 4.66089 12.7454 4.66089Z" fill="#EB4335"/>
</svg>
