<svg width="81" height="71" viewBox="0 0 81 71" fill="none" xmlns="http://www.w3.org/2000/svg">
<g clip-path="url(#clip0_192_3406)">
<path d="M16.0121 28.8322C12.3336 25.2448 12.3336 19.4266 16.0121 15.8392C19.6907 12.2517 25.6567 12.2517 29.3353 15.8392L30.9271 17.3916L40.5215 8.03497L39.0372 6.58741C30.0953 -2.13287 15.6106 -2.13287 6.66873 6.58741C2.22291 10.9231 0 16.6084 0 22.2867C0 27.965 2.22291 33.6503 6.66873 37.986L8.24628 39.5245L17.6112 30.3916L16.0121 28.8322Z" fill="#5258FC"/>
<path d="M74.2952 6.5035C65.4036 -2.16783 50.9905 -2.16783 42.0989 6.5035L40.5213 8.03496L30.927 17.3916L40.4998 26.7273L51.6646 15.8392C55.3431 12.2517 61.3091 12.2517 64.9877 15.8392C68.6662 19.4266 68.6662 25.2448 64.9877 28.8322L53.8301 39.7203L40.4998 52.7133L17.611 30.3916L8.24609 39.5245L40.5213 71L72.8037 39.5175L74.2952 38.0629C83.2371 29.3497 83.2371 15.2168 74.2952 6.5035Z" fill="#00BAFF"/>
</g>
<defs>
<clipPath id="clip0_192_3406">
<rect width="81" height="71" fill="white"/>
</clipPath>
</defs>
</svg>
