<svg width="50" height="44" viewBox="0 0 50 44" fill="none" xmlns="http://www.w3.org/2000/svg">
<g clip-path="url(#clip0_192_3459)">
<path d="M9.88403 17.7976C7.61331 15.5832 7.61331 11.9917 9.88403 9.77727C12.1547 7.56281 15.8375 7.56281 18.1082 9.77727L19.0908 10.7356L25.0133 4.95986L24.097 4.06631C18.5774 -1.31658 9.63616 -1.31658 4.1165 4.06631C1.37217 6.74265 0 10.2521 0 13.7572C0 17.2624 1.37217 20.7718 4.1165 23.4482L5.0903 24.3978L10.8711 18.7603L9.88403 17.7976Z" fill="white" fill-opacity="0.5"/>
<path d="M45.8609 4.0145C40.3722 -1.33817 31.4753 -1.33817 25.9866 4.0145L25.0128 4.95986L19.0904 10.7356L24.9995 16.4983L31.8914 9.77726C34.1621 7.56281 37.8448 7.56281 40.1155 9.77726C42.3862 11.9917 42.3862 15.5832 40.1155 17.7976L33.2281 24.5187L24.9995 32.5391L10.8707 18.7603L5.08984 24.3978L25.0128 43.8272L44.9402 24.3935L45.8609 23.4956C51.3806 18.1171 51.3806 9.39308 45.8609 4.0145Z" fill="white"/>
</g>
<defs>
<clipPath id="clip0_192_3459">
<rect width="50" height="43.8272" fill="white"/>
</clipPath>
</defs>
</svg>
