<svg width="25" height="22" viewBox="0 0 25 22" fill="none" xmlns="http://www.w3.org/2000/svg">
<path d="M8.18783 2.8335C5.27683 2.8335 2.91699 5.19334 2.91699 8.10433C2.91699 13.3752 9.14616 18.1668 12.5003 19.2815C15.8545 18.1668 22.0837 13.3752 22.0837 8.10433C22.0837 5.19334 19.7238 2.8335 16.8128 2.8335C15.0302 2.8335 13.4542 3.71847 12.5003 5.07303C11.5464 3.71847 9.97047 2.8335 8.18783 2.8335Z" fill="white"/>
<path d="M16.8128 1.8335C15.1417 1.8335 13.6235 2.48775 12.5003 3.55188C11.3772 2.48775 9.85891 1.8335 8.18783 1.8335C4.72454 1.8335 1.91699 4.64106 1.91699 8.10433C1.91699 11.1239 3.68525 13.8798 5.74027 15.9551C7.80502 18.0403 10.3311 19.6144 12.185 20.2304C12.3897 20.2985 12.6109 20.2985 12.8157 20.2304C14.6695 19.6144 17.1956 18.0403 19.2604 15.9551C21.3154 13.8798 23.0837 11.1239 23.0837 8.10433C23.0837 4.64106 20.2761 1.8335 16.8128 1.8335Z" stroke="black" stroke-opacity="0.5" stroke-width="2" stroke-linecap="round" stroke-linejoin="round"/>
</svg>
