<svg width="27" height="27" viewBox="0 0 27 27" fill="none" xmlns="http://www.w3.org/2000/svg">
<rect width="27" height="27" rx="13.5" fill="#247CFF"/>
<path d="M16.4325 7.09633L10.0362 9.22133C5.73663 10.6592 5.73663 13.0038 10.0362 14.4347L11.9345 15.0651L12.565 16.9634C13.9958 21.263 16.3475 21.263 17.7783 16.9634L19.9104 10.5742C20.8595 7.7055 19.3012 6.14008 16.4325 7.09633ZM16.6591 10.9072L13.9675 13.613C13.8612 13.7192 13.7266 13.7688 13.592 13.7688C13.4575 13.7688 13.3229 13.7192 13.2166 13.613C13.0112 13.4076 13.0112 13.0676 13.2166 12.8622L15.9083 10.1563C16.1137 9.95091 16.4537 9.95091 16.6591 10.1563C16.8645 10.3617 16.8645 10.7017 16.6591 10.9072Z" fill="white"/>
</svg>
