<svg width="23" height="23" viewBox="0 0 23 23" fill="none" xmlns="http://www.w3.org/2000/svg">
<path d="M2.71107 8.16048L21.3697 1.62997L14.8392 20.2886L11.2637 12.2437C11.1631 12.0174 10.9822 11.8365 10.756 11.736L2.71107 8.16048Z" stroke="black" stroke-opacity="0.5" stroke-width="2" stroke-linejoin="round"/>
<mask id="path-2-inside-1_179_3073" fill="white">
<path d="M23.0004 0L10.3506 12.6498Z"/>
</mask>
<path d="M24.4146 1.41421C25.1957 0.633165 25.1957 -0.633165 24.4146 -1.41421C23.6336 -2.19526 22.3672 -2.19526 21.5862 -1.41421L24.4146 1.41421ZM8.93637 11.2356C8.15532 12.0166 8.15532 13.283 8.93637 14.064C9.71742 14.8451 10.9838 14.8451 11.7648 14.064L8.93637 11.2356ZM21.5862 -1.41421L8.93637 11.2356L11.7648 14.064L24.4146 1.41421L21.5862 -1.41421Z" fill="black" fill-opacity="0.5" mask="url(#path-2-inside-1_179_3073)"/>
</svg>
